# xmcd
#
# Track frame offsets: 
#        150
#        20496
#        37127
#        56740
#        76484
#        94614
#        108661
#        121611
#        134496
#        153891
#        169466
#        190797
#        203927
#        231490
#        251222
#        265770
#        282791
#        297239
#        327218
#
# Disc length: 4666 seconds
#
# Revision: 0
# Processed by: cddbd v1.5.2PL0 Copyright (c) Steve Scherf et al.
# Submitted via: ExactAudioCopy v0.99pb5
#
DISCID=1a123813
DTITLE=Various Artist - Cool Yule - Merry Christmas From The Gaglione Family
DYEAR=2011
DGENRE=Christmas
TTITLE0=Diana Kroll - White Christmas
TTITLE1=Lou Rawls - Have Yourself A Merry Little Christmas
TTITLE2=Charles Brown and Johnny Otis - Christmas Comes But Once A Year
TTITLE3=Shamekia Copeland - Stay A Little Longer Santa
TTITLE4=Sara McLachlan - Christmastime Is Here
TTITLE5=Diana Kroll - I'll Be Home For Christmas
TTITLE6=Lou Rawls - Oh Come All Ye Faithful
TTITLE7=Charles Brown - Please Come Home For Christmas
TTITLE8=Eric Clapton - Christmas Tears
TTITLE9=Room Full of Blues - Christmas Celebration
TTITLE10=Koko Taylor - Have You Heard The News?
TTITLE11=L'il Ed and The Blue Imperials - I'm Your Santa
TTITLE12=Stony Plains - Christmas 911
TTITLE13=Little Jimmy King and The Memphis Horns - Happy Christmas Tears
TTITLE14=Little Charlie and The Nightcats - It's Christmas Time Again (S
TTITLE14=pend)
TTITLE15=Larry David and The Memphis Horns - Poor Man's Christmas
TTITLE16=Preston Shannon - Xmas Blues
TTITLE17=Billy Ray Charles - I Been Double Crossed by Santa Claus
TTITLE18=Four Tops - Merry Christmas Baby
EXTD=
EXTT0=
EXTT1=
EXTT2=
EXTT3=
EXTT4=
EXTT5=
EXTT6=
EXTT7=
EXTT8=
EXTT9=
EXTT10=
EXTT11=
EXTT12=
EXTT13=
EXTT14=
EXTT15=
EXTT16=
EXTT17=
EXTT18=
PLAYORDER=
